# xmcd
#
# Track frame offsets: 
#        183
#        24885
#        54115
#        84450
#        115543
#        142565
#        166030
#        184520
#        221853
#        247668
#        277965
#        300308
#
# Disc length: 4419 seconds
#
# Revision: 4
# Processed by: cddbd v1.5.2PL0 Copyright (c) Steve Scherf et al.
# Submitted via: ExactAudioCopy v0.99pb5
#
DISCID=7d11410c
DTITLE=Al Jarreau - Look To The Rainbow
DYEAR=1977
DGENRE=Vocal
TTITLE0=Letter Perfect
TTITLE1=Rainbow In Your Eyes
TTITLE2=One Good Turn
TTITLE3=Could You Believe
TTITLE4=Burst In With The Dawn
TTITLE5=Better Than Anything
TTITLE6=So Long Girl
TTITLE7=Look To The Rainbow
TTITLE8=You Don't See Me
TTITLE9=Take Five
TTITLE10=Loving You
TTITLE11=We Got By
EXTD=Record Label:\tWarner Bros.\nCatalog Number:\t3052-2\nRecording D
EXTD=ate:\tJanuary and February 1977\nOriginal Release:\t1977\nCD Reissu
EXTD=e:\tNA\n\nAl Jarreau:\tVocals\nTom Canning:\tKeyboards\nJoe Corre
EXTD=ro:\tDrums\nAbraham Laboriel:\tBass\nLynn Blessing:\tVibes\n\nRec
EXTD=orded live in Europe, January and February 1977
EXTT0=
EXTT1=
EXTT2=
EXTT3=
EXTT4=
EXTT5=
EXTT6=
EXTT7=
EXTT8=
EXTT9=
EXTT10=
EXTT11=
PLAYORDER=
